<?xml version="1.0" encoding="UTF-8" standalone="no"?><svg xmlns="http://www.w3.org/2000/svg" xmlns:xlink="http://www.w3.org/1999/xlink" contentScriptType="application/ecmascript" contentStyleType="text/css" height="548px" preserveAspectRatio="none" style="width:529px;height:548px;" version="1.1" viewBox="0 0 529 548" width="529px" zoomAndPan="magnify"><defs><filter height="300%" id="f1a903k303b3g3" width="300%" x="-1" y="-1"><feGaussianBlur result="blurOut" stdDeviation="2.0"/><feColorMatrix in="blurOut" result="blurOut2" type="matrix" values="0 0 0 0 0 0 0 0 0 0 0 0 0 0 0 0 0 0 .4 0"/><feOffset dx="4.0" dy="4.0" in="blurOut2" result="blurOut3"/><feBlend in="SourceGraphic" in2="blurOut3" mode="normal"/></filter></defs><g><text fill="#000000" font-family="sans-serif" font-size="18" lengthAdjust="spacingAndGlyphs" textLength="223" x="154" y="26.708">Ipcam Analysis Workflow</text><rect fill="#DDDDDD" height="498.7891" style="stroke: #A80036; stroke-width: 1.0;" width="197" x="283" y="38.9531"/><text fill="#000000" font-family="sans-serif" font-size="13" font-weight="bold" lengthAdjust="spacingAndGlyphs" textLength="143" x="310" y="51.02">Amazon AWS Cloud</text><line style="stroke: #A80036; stroke-width: 1.0; stroke-dasharray: 5.0,5.0;" x1="36" x2="36" y1="121.25" y2="451.4453"/><line style="stroke: #A80036; stroke-width: 1.0; stroke-dasharray: 5.0,5.0;" x1="111" x2="111" y1="121.25" y2="451.4453"/><line style="stroke: #A80036; stroke-width: 1.0; stroke-dasharray: 5.0,5.0;" x1="203.5" x2="203.5" y1="121.25" y2="451.4453"/><line style="stroke: #A80036; stroke-width: 1.0; stroke-dasharray: 5.0,5.0;" x1="338" x2="338" y1="121.25" y2="451.4453"/><line style="stroke: #A80036; stroke-width: 1.0; stroke-dasharray: 5.0,5.0;" x1="438" x2="438" y1="121.25" y2="451.4453"/><line style="stroke: #A80036; stroke-width: 1.0; stroke-dasharray: 5.0,5.0;" x1="504" x2="504" y1="121.25" y2="451.4453"/><text fill="#000000" font-family="sans-serif" font-size="14" lengthAdjust="spacingAndGlyphs" textLength="50" x="8" y="117.9482">picture</text><ellipse cx="36" cy="47.9531" fill="#FF0000" filter="url(#f1a903k303b3g3)" rx="8" ry="8" style="stroke: #A80036; stroke-width: 2.0;"/><path d="M36,55.9531 L36,82.9531 M23,63.9531 L49,63.9531 M36,82.9531 L23,97.9531 M36,82.9531 L49,97.9531 " fill="none" filter="url(#f1a903k303b3g3)" style="stroke: #A80036; stroke-width: 2.0;"/><text fill="#000000" font-family="sans-serif" font-size="14" lengthAdjust="spacingAndGlyphs" textLength="50" x="8" y="463.4404">picture</text><ellipse cx="36" cy="476.7422" fill="#FF0000" filter="url(#f1a903k303b3g3)" rx="8" ry="8" style="stroke: #A80036; stroke-width: 2.0;"/><path d="M36,484.7422 L36,511.7422 M23,492.7422 L49,492.7422 M36,511.7422 L23,526.7422 M36,511.7422 L49,526.7422 " fill="none" filter="url(#f1a903k303b3g3)" style="stroke: #A80036; stroke-width: 2.0;"/><rect fill="#FEFECE" filter="url(#f1a903k303b3g3)" height="46.9635" style="stroke: #A80036; stroke-width: 1.5;" width="71" x="74" y="69.2865"/><path d="M102.2083,78.3698 C101.625,78.3698 101.1667,78.8281 101.1667,79.4115 L101.1667,87.7448 C101.1667,88.3281 101.625,88.7865 102.2083,88.7865 L112.625,88.7865 C113.2083,88.7865 113.6667,88.3281 113.6667,87.7448 L113.6667,84.6198 L115.75,86.7031 L117.8333,86.7031 L117.8333,80.4531 L115.75,80.4531 L113.6667,82.5365 L113.6667,79.4115 C113.6667,78.8281 113.2083,78.3698 112.625,78.3698 L102.2083,78.3698 " fill="#000000" style="stroke: ; stroke-width: 0.0; stroke-dasharray: ;"/><text fill="#000000" font-family="sans-serif" font-size="14" lengthAdjust="spacingAndGlyphs" textLength="57" x="81" y="105.9482">Camera</text><rect fill="#FEFECE" filter="url(#f1a903k303b3g3)" height="46.9635" style="stroke: #A80036; stroke-width: 1.5;" width="71" x="74" y="450.4453"/><path d="M102.2083,459.5286 C101.625,459.5286 101.1667,459.987 101.1667,460.5703 L101.1667,468.9036 C101.1667,469.487 101.625,469.9453 102.2083,469.9453 L112.625,469.9453 C113.2083,469.9453 113.6667,469.487 113.6667,468.9036 L113.6667,465.7786 L115.75,467.862 L117.8333,467.862 L117.8333,461.612 L115.75,461.612 L113.6667,463.6953 L113.6667,460.5703 C113.6667,459.987 113.2083,459.5286 112.625,459.5286 L102.2083,459.5286 " fill="#000000" style="stroke: ; stroke-width: 0.0; stroke-dasharray: ;"/><text fill="#000000" font-family="sans-serif" font-size="14" lengthAdjust="spacingAndGlyphs" textLength="57" x="81" y="487.1071">Camera</text><rect fill="#00FFFF" filter="url(#f1a903k303b3g3)" height="46.5938" style="stroke: #A80036; stroke-width: 1.5;" width="72" x="165.5" y="69.6563"/><text fill="#000000" font-family="sans-serif" font-size="14" lengthAdjust="spacingAndGlyphs" textLength="44" x="179.5" y="89.6514">Ipcam</text><text fill="#000000" font-family="sans-serif" font-size="14" lengthAdjust="spacingAndGlyphs" textLength="58" x="172.5" y="105.9482">Analysis</text><rect fill="#00FFFF" filter="url(#f1a903k303b3g3)" height="46.5938" style="stroke: #A80036; stroke-width: 1.5;" width="72" x="165.5" y="450.4453"/><text fill="#000000" font-family="sans-serif" font-size="14" lengthAdjust="spacingAndGlyphs" textLength="44" x="179.5" y="470.4404">Ipcam</text><text fill="#000000" font-family="sans-serif" font-size="14" lengthAdjust="spacingAndGlyphs" textLength="58" x="172.5" y="486.7373">Analysis</text><rect fill="#FEFECE" filter="url(#f1a903k303b3g3)" height="46.5938" style="stroke: #A80036; stroke-width: 1.5;" width="99" x="287" y="69.6563"/><text fill="#000000" font-family="sans-serif" font-size="14" lengthAdjust="spacingAndGlyphs" textLength="58" x="307.5" y="89.6514">Amazon</text><text fill="#000000" font-family="sans-serif" font-size="14" lengthAdjust="spacingAndGlyphs" textLength="85" x="294" y="105.9482">Rekognition</text><rect fill="#FEFECE" filter="url(#f1a903k303b3g3)" height="46.5938" style="stroke: #A80036; stroke-width: 1.5;" width="99" x="287" y="450.4453"/><text fill="#000000" font-family="sans-serif" font-size="14" lengthAdjust="spacingAndGlyphs" textLength="58" x="307.5" y="470.4404">Amazon</text><text fill="#000000" font-family="sans-serif" font-size="14" lengthAdjust="spacingAndGlyphs" textLength="85" x="294" y="486.7373">Rekognition</text><rect fill="#FEFECE" filter="url(#f1a903k303b3g3)" height="46.5938" style="stroke: #A80036; stroke-width: 1.5;" width="72" x="400" y="69.6563"/><text fill="#000000" font-family="sans-serif" font-size="14" lengthAdjust="spacingAndGlyphs" textLength="58" x="407" y="89.6514">Amazon</text><text fill="#000000" font-family="sans-serif" font-size="14" lengthAdjust="spacingAndGlyphs" textLength="27" x="422.5" y="105.9482">SES</text><rect fill="#FEFECE" filter="url(#f1a903k303b3g3)" height="46.5938" style="stroke: #A80036; stroke-width: 1.5;" width="72" x="400" y="450.4453"/><text fill="#000000" font-family="sans-serif" font-size="14" lengthAdjust="spacingAndGlyphs" textLength="58" x="407" y="470.4404">Amazon</text><text fill="#000000" font-family="sans-serif" font-size="14" lengthAdjust="spacingAndGlyphs" textLength="27" x="422.5" y="486.7373">SES</text><text fill="#000000" font-family="sans-serif" font-size="14" lengthAdjust="spacingAndGlyphs" textLength="31" x="486" y="117.9482">user</text><ellipse cx="504.5" cy="47.9531" fill="#FEFECE" filter="url(#f1a903k303b3g3)" rx="8" ry="8" style="stroke: #A80036; stroke-width: 2.0;"/><path d="M504.5,55.9531 L504.5,82.9531 M491.5,63.9531 L517.5,63.9531 M504.5,82.9531 L491.5,97.9531 M504.5,82.9531 L517.5,97.9531 " fill="none" filter="url(#f1a903k303b3g3)" style="stroke: #A80036; stroke-width: 2.0;"/><text fill="#000000" font-family="sans-serif" font-size="14" lengthAdjust="spacingAndGlyphs" textLength="31" x="486" y="463.4404">user</text><ellipse cx="504.5" cy="476.7422" fill="#FEFECE" filter="url(#f1a903k303b3g3)" rx="8" ry="8" style="stroke: #A80036; stroke-width: 2.0;"/><path d="M504.5,484.7422 L504.5,511.7422 M491.5,492.7422 L517.5,492.7422 M504.5,511.7422 L491.5,526.7422 M504.5,511.7422 L517.5,526.7422 " fill="none" filter="url(#f1a903k303b3g3)" style="stroke: #A80036; stroke-width: 2.0;"/><polygon fill="#A80036" points="99.5,133.25,109.5,137.25,99.5,141.25,103.5,137.25" style="stroke: #A80036; stroke-width: 1.0;"/><line style="stroke: #A80036; stroke-width: 1.0;" x1="36" x2="105.5" y1="137.25" y2="137.25"/><rect fill="#FBFB77" filter="url(#f1a903k303b3g3)" height="23" style="stroke: #A80036; stroke-width: 1.0;" width="138" x="42" y="150.25"/><text fill="#000000" font-family="sans-serif" font-size="13" lengthAdjust="spacingAndGlyphs" textLength="130" x="46" y="166.3169">Movement detected</text><polygon fill="#A80036" points="191.5,195.5156,201.5,199.5156,191.5,203.5156,195.5,199.5156" style="stroke: #A80036; stroke-width: 1.0;"/><line style="stroke: #A80036; stroke-width: 1.0;" x1="111.5" x2="197.5" y1="199.5156" y2="199.5156"/><text fill="#000000" font-family="sans-serif" font-size="13" lengthAdjust="spacingAndGlyphs" textLength="68" x="118.5" y="194.4497">FTP image</text><rect fill="#FBFB77" filter="url(#f1a903k303b3g3)" height="23" style="stroke: #A80036; stroke-width: 1.0;" width="132" x="137" y="212.5156"/><text fill="#000000" font-family="sans-serif" font-size="13" lengthAdjust="spacingAndGlyphs" textLength="124" x="141" y="228.5825">Check active hours</text><rect fill="#FBFB77" filter="url(#f1a903k303b3g3)" height="23" style="stroke: #A80036; stroke-width: 1.0;" width="88" x="159" y="245.6484"/><text fill="#000000" font-family="sans-serif" font-size="13" lengthAdjust="spacingAndGlyphs" textLength="80" x="163" y="261.7153">Scale image</text><polygon fill="#A80036" points="326.5,290.9141,336.5,294.9141,326.5,298.9141,330.5,294.9141" style="stroke: #A80036; stroke-width: 1.0;"/><line style="stroke: #A80036; stroke-width: 1.0;" x1="203.5" x2="332.5" y1="294.9141" y2="294.9141"/><text fill="#000000" font-family="sans-serif" font-size="13" lengthAdjust="spacingAndGlyphs" textLength="111" x="210.5" y="289.8481">Request analysis</text><polygon fill="#A80036" points="214.5,320.0469,204.5,324.0469,214.5,328.0469,210.5,324.0469" style="stroke: #A80036; stroke-width: 1.0;"/><line style="stroke: #A80036; stroke-width: 1.0;" x1="208.5" x2="337.5" y1="324.0469" y2="324.0469"/><text fill="#000000" font-family="sans-serif" font-size="13" lengthAdjust="spacingAndGlyphs" textLength="83" x="220.5" y="318.981">List of labels</text><rect fill="#FBFB77" filter="url(#f1a903k303b3g3)" height="23" style="stroke: #A80036; stroke-width: 1.0;" width="91" x="158" y="337.0469"/><text fill="#000000" font-family="sans-serif" font-size="13" lengthAdjust="spacingAndGlyphs" textLength="83" x="162" y="353.1138">Check labels</text><rect fill="#FBFB77" filter="url(#f1a903k303b3g3)" height="23" style="stroke: #A80036; stroke-width: 1.0;" width="85" x="161" y="370.1797"/><text fill="#000000" font-family="sans-serif" font-size="13" lengthAdjust="spacingAndGlyphs" textLength="77" x="165" y="386.2466">Draw boxes</text><polygon fill="#A80036" points="426,415.4453,436,419.4453,426,423.4453,430,419.4453" style="stroke: #A80036; stroke-width: 1.0;"/><line style="stroke: #A80036; stroke-width: 1.0;" x1="203.5" x2="432" y1="419.4453" y2="419.4453"/><text fill="#000000" font-family="sans-serif" font-size="13" lengthAdjust="spacingAndGlyphs" textLength="73" x="210.5" y="414.3794">Send email</text><polygon fill="#A80036" points="492.5,429.4453,502.5,433.4453,492.5,437.4453,496.5,433.4453" style="stroke: #A80036; stroke-width: 1.0;"/><line style="stroke: #A80036; stroke-width: 1.0;" x1="438" x2="498.5" y1="433.4453" y2="433.4453"/><!--MD5=[3461b67864b509b642ab8c3769a3fc82]
@startuml
title Ipcam Analysis Workflow
actor picture #red
participant Camera as "<size:25><&video></size>\nCamera"
picture -> Camera
rnote over Camera : Movement detected
participant "Ipcam\nAnalysis" as Program #cyan
Camera -> Program : FTP image
rnote over Program : Check active hours
rnote over Program : Scale image
box Amazon AWS Cloud
Program -> "Amazon\nRekognition" : Request analysis
"Amazon\nRekognition" -> Program : List of labels
rnote over Program : Check labels
rnote over Program : Draw boxes
Program -> "Amazon\nSES" : Send email
endbox
actor user
"Amazon\nSES" -> user
@enduml

PlantUML version 1.2020.03beta6(Unknown compile time)
(GPL source distribution)
Java Runtime: OpenJDK Runtime Environment
JVM: OpenJDK 64-Bit Server VM
Java Version: 11.0.8+10-b944.34
Operating System: Linux
Default Encoding: UTF-8
Language: en
Country: CA
--></g></svg>